<svg id="Calque_1" data-name="Calque 1" xmlns="http://www.w3.org/2000/svg" xmlns:xlink="http://www.w3.org/1999/xlink" viewBox="0 0 576.17 509.84"><defs><style>.cls-1{fill:#8bced5;}.cls-2{fill:url(#Dégradé_sans_nom_27);}.cls-3{fill:url(#Dégradé_sans_nom_25);}.cls-4{fill:url(#Dégradé_sans_nom_27-2);}</style><linearGradient id="Dégradé_sans_nom_27" x1="372.41" y1="364.44" x2="497.78" y2="364.44" gradientUnits="userSpaceOnUse"><stop offset="0.05" stop-color="#1a807b"/><stop offset="0.14" stop-color="#268782"/><stop offset="0.31" stop-color="#479995"/><stop offset="0.53" stop-color="#7db7b4"/><stop offset="0.79" stop-color="#c6dfde"/><stop offset="0.98" stop-color="#fff"/></linearGradient><linearGradient id="Dégradé_sans_nom_25" x1="200.61" y1="151.72" x2="372.41" y2="151.72" gradientUnits="userSpaceOnUse"><stop offset="0.26" stop-color="#1a807b"/><stop offset="0.87" stop-color="#fff"/></linearGradient><linearGradient id="Dégradé_sans_nom_27-2" x1="-190.6" y1="454.44" x2="-52.07" y2="454.44" gradientTransform="translate(269.13 -19.93)" xlink:href="#Dégradé_sans_nom_27"/></defs><title>favicon</title><path class="cls-1" d="M200.61,250.53V211.08L302.73,98.26h-98.8V52.92H372.41V92.36L269.92,205.18H372.41v45.35Z"/><path class="cls-1" d="M419.14,464H368.26L290.47,264.89h59.36l44.24,132.36,44.61-132.36h58.25Z"/><path class="cls-1" d="M78.52,264.89V462.51h56V264.89Zm43.45,28H90.85V281.62H122Z"/><path class="cls-1" d="M222.91,264.87V462.53h56V264.87ZM248.5,389.25H235.24V281.6H248.5Zm18,0H253V281.6h13.46Z"/><path class="cls-1" d="M78.52,52.92V250.53h56V52.92ZM122,162a15.27,15.27,0,0,1-15.27,15.27h-.58A15.27,15.27,0,0,1,90.85,162V84.91a15.27,15.27,0,0,1,15.27-15.27h.58A15.27,15.27,0,0,1,122,84.91Z"/><path class="cls-1" d="M438.46,45.83V243.44h56V45.83Zm28,54.92h0a15.56,15.56,0,1,1,0-31.11h0a15.56,15.56,0,1,1,0,31.11Z"/><polygon class="cls-2" points="419.99 464 372.41 464 439.51 264.87 497.78 264.92 419.99 464"/><polygon class="cls-3" points="343.8 52.92 217.96 191.91 200.61 211.08 200.61 212.48 200.61 213.63 200.61 216.93 200.61 219.53 200.61 222.25 200.61 224.4 200.61 226.48 200.61 230.17 200.61 232.44 200.61 236.59 200.61 241.96 200.61 245.96 200.61 248.18 200.61 248.95 200.61 249.99 200.61 250.15 200.61 250.15 200.61 250.53 228.62 250.53 353.25 113.45 372.4 92.34 372.42 52.92 343.8 52.92"/><rect class="cls-4" x="78.52" y="406.49" width="138.53" height="56.04" transform="translate(295.58 869.02) rotate(180)"/></svg>