<svg id="Calque_1" data-name="Calque 1" xmlns="http://www.w3.org/2000/svg" xmlns:xlink="http://www.w3.org/1999/xlink" viewBox="0 0 818.07 355.43"><defs><style>.cls-1{fill:#8bced5;}.cls-2{font-size:43.63px;fill:#fff;font-family:Gotham-Book, Gotham;letter-spacing:0.5em;}.cls-3{letter-spacing:0.46em;}.cls-4{fill:url(#Dégradé_sans_nom_27);}.cls-5{fill:url(#Dégradé_sans_nom_25);}</style><linearGradient id="Dégradé_sans_nom_27" x1="665.72" y1="191.2" x2="791.09" y2="191.2" gradientUnits="userSpaceOnUse"><stop offset="0.05" stop-color="#1a807b"/><stop offset="0.14" stop-color="#268782"/><stop offset="0.31" stop-color="#479995"/><stop offset="0.53" stop-color="#7db7b4"/><stop offset="0.79" stop-color="#c6dfde"/><stop offset="0.98" stop-color="#fff"/></linearGradient><linearGradient id="Dégradé_sans_nom_25" x1="135.64" y1="190.49" x2="307.44" y2="190.49" gradientUnits="userSpaceOnUse"><stop offset="0.26" stop-color="#1a807b"/><stop offset="0.87" stop-color="#fff"/></linearGradient></defs><title>iziliv</title><path class="cls-1" d="M135.64,289.29V249.84L237.76,137H139V91.68H307.44v39.45L205,244H307.44v45.34Z"/><path class="cls-1" d="M713.3,290.77H662.42L584.63,91.68H644L688.22,224,732.83,91.68h58.26Z"/><text class="cls-2" transform="translate(51.35 328.47) scale(0.99 1)">READ AND GR<tspan class="cls-3" x="564.26" y="0">O</tspan><tspan x="621.59" y="0">W</tspan></text><path class="cls-1" d="M501.31,91.68V289.29h56V91.68Zm43.44,28H513.64V108.4h31.11Z"/><path class="cls-1" d="M418,20.16V289.29h56V20.16ZM443.6,189.52H430.34V42.93H443.6Zm18,0H448.12V42.93h13.47Z"/><path class="cls-1" d="M55.64,92.42V290h56V92.42ZM99.09,201.5a15.27,15.27,0,0,1-15.27,15.27h-.58A15.27,15.27,0,0,1,68,201.5V124.41a15.27,15.27,0,0,1,15.27-15.27h.58a15.27,15.27,0,0,1,15.27,15.27Z"/><path class="cls-1" d="M334.69,92.42V290h56V92.42Zm28,47.83h0a15.56,15.56,0,0,1,0-31.11h0a15.56,15.56,0,1,1,0,31.11Z"/><polygon class="cls-4" points="713.29 290.77 665.72 290.77 732.82 91.63 791.09 91.68 713.29 290.77"/><polygon class="cls-5" points="278.83 91.68 152.99 230.68 135.64 249.84 135.64 251.25 135.64 252.4 135.64 255.69 135.64 258.29 135.64 261.02 135.64 263.17 135.64 265.25 135.64 268.94 135.64 271.2 135.64 275.35 135.64 280.73 135.64 284.73 135.64 286.94 135.64 287.71 135.64 288.75 135.64 288.91 135.64 288.92 135.64 289.29 163.65 289.29 288.28 152.22 307.43 131.11 307.44 91.68 278.83 91.68"/></svg>