<svg id="Calque_1" data-name="Calque 1" xmlns="http://www.w3.org/2000/svg" viewBox="0 0 576.17 509.84"><defs><style>.cls-1{fill:#fff;}.cls-2{fill:#8bced5;}</style></defs><title>logo-2</title><path class="cls-1" d="M209.81,250.53V211.08L311.93,98.26h-98.8V52.92H381.61V92.36L279.12,205.18H381.61v45.35Z"/><path class="cls-1" d="M428.34,464H377.46L299.67,264.89H359l44.24,132.36,44.61-132.36h58.25Z"/><path class="cls-1" d="M87.73,264.9V462.51h56V264.9Zm43.44,28H100.06V281.62h31.11Z"/><rect class="cls-2" x="100.06" y="281.62" width="31.11" height="11.31"/><path class="cls-1" d="M232.12,264.87V462.53h56V264.87Zm25.59,124.39H244.45V281.6h13.26Zm18,0H262.23V281.6h13.46Z"/><rect class="cls-2" x="262.23" y="281.6" width="13.46" height="107.66"/><rect class="cls-2" x="244.45" y="281.6" width="13.26" height="107.66"/><path class="cls-1" d="M90.89,42.8V240.41h56V42.8Zm43.44,109.08a15.27,15.27,0,0,1-15.27,15.27h-.57a15.27,15.27,0,0,1-15.27-15.27V74.79a15.27,15.27,0,0,1,15.27-15.27h.57a15.27,15.27,0,0,1,15.27,15.27Z"/><path class="cls-2" d="M134.33,74.79v77.09a15.27,15.27,0,0,1-15.27,15.27h-.57a15.27,15.27,0,0,1-15.27-15.27V74.79a15.27,15.27,0,0,1,15.27-15.27h.57A15.27,15.27,0,0,1,134.33,74.79Z"/><path class="cls-1" d="M447.66,45.83V243.45h56V45.83Zm28,54.93A15.56,15.56,0,1,1,491.24,85.2,15.56,15.56,0,0,1,475.68,100.76Z"/><path class="cls-2" d="M491.24,85.2a15.55,15.55,0,1,1-4.55-11A15.56,15.56,0,0,1,491.24,85.2Z"/><rect class="cls-1" x="87.72" y="406.49" width="138.53" height="56.04" transform="translate(313.98 869.02) rotate(180)"/></svg>